<?xml version="1.0" standalone="no"?>
<!DOCTYPE svg PUBLIC "-//W3C//DTD SVG 20010904//EN"
 "http://www.w3.org/TR/2001/REC-SVG-20010904/DTD/svg10.dtd">
<svg version="1.0" xmlns="http://www.w3.org/2000/svg"
 width="70.000000pt" height="70.000000pt" viewBox="0 0 70.000000 70.000000"
 preserveAspectRatio="xMidYMid meet">
<metadata>
Created by potrace 1.14, written by Peter Selinger 2001-2017
</metadata>
<g transform="translate(0.000000,70.000000) scale(0.100000,-0.100000)"
fill="#000000" stroke="none">
<path d="M179 575 c-46 -25 -59 -57 -59 -145 0 -60 3 -81 12 -78 8 3 13 31 13
81 1 66 4 80 25 102 13 13 38 28 57 31 18 3 33 10 33 15 0 14 -52 10 -81 -6z"/>
<path d="M199 528 c-16 -10 -29 -26 -30 -35 -7 -111 -3 -252 8 -275 17 -35 40
-41 177 -42 123 -2 162 9 172 48 5 22 8 135 5 243 -2 67 -26 77 -179 78 -101
0 -130 -3 -153 -17z"/>
<path d="M555 303 c2 -95 -23 -142 -81 -146 -38 -3 -44 -27 -7 -27 37 1 70 20
94 56 23 36 28 184 6 184 -10 0 -13 -17 -12 -67z"/>
</g>
</svg>
