<svg width="13" height="13" viewBox="0 0 13 13" fill="none" xmlns="http://www.w3.org/2000/svg">
<path d="M6.66409 1.11954C8.20994 1.11954 8.42074 1.11954 9.05313 1.11954C9.61526 1.11954 9.89632 1.26484 10.1071 1.33749C10.3882 1.48279 10.599 1.55544 10.8098 1.77339C11.0206 1.99134 11.1611 2.20929 11.2314 2.49989C11.3016 2.71784 11.3719 3.00844 11.4422 3.58964C11.4422 4.24349 11.4422 4.38879 11.4422 6.05974C11.4422 7.73069 11.4422 7.87599 11.4422 8.52984C11.4422 9.11104 11.3016 9.40164 11.2314 9.61959C11.0908 9.91019 11.0206 10.1281 10.8098 10.3461C10.599 10.564 10.3882 10.7093 10.1071 10.782C9.89632 10.8546 9.61526 10.9273 9.05313 10.9999C8.42074 10.9999 8.28021 10.9999 6.66409 10.9999C5.04798 10.9999 4.90745 10.9999 4.27506 10.9999C3.71293 10.9999 3.43187 10.8546 3.22107 10.782C2.94001 10.6367 2.72921 10.564 2.51841 10.3461C2.30761 10.1281 2.16708 9.91019 2.09682 9.61959C2.02655 9.40164 1.95628 9.11104 1.88602 8.52984C1.88602 7.87599 1.88602 7.73069 1.88602 6.05974C1.88602 4.38879 1.88602 4.24349 1.88602 3.58964C1.88602 3.00844 2.02655 2.71784 2.09682 2.49989C2.23735 2.20929 2.30761 1.99134 2.51841 1.77339C2.72921 1.55544 2.94001 1.41014 3.22107 1.33749C3.43187 1.26484 3.71293 1.19219 4.27506 1.11954C4.90745 1.11954 5.11824 1.11954 6.66409 1.11954ZM6.66409 0.0297852C5.04798 0.0297852 4.90745 0.0297852 4.27506 0.0297852C3.64266 0.0297852 3.22107 0.175086 2.86974 0.320386C2.51841 0.465686 2.16708 0.683636 1.81575 1.04689C1.46442 1.41014 1.32389 1.70074 1.11309 2.13664C0.972563 2.49989 0.902297 2.93579 0.832031 3.58964C0.832031 4.24349 0.832031 4.46144 0.832031 6.05974C0.832031 7.73069 0.832031 7.87599 0.832031 8.52984C0.832031 9.18369 0.972563 9.61959 1.11309 9.98284C1.25363 10.3461 1.46442 10.7093 1.81575 11.0726C2.16708 11.4358 2.44814 11.5811 2.86974 11.7991C3.22107 11.9444 3.64266 12.017 4.27506 12.0897C4.90745 12.0897 5.11824 12.0897 6.66409 12.0897C8.20994 12.0897 8.42074 12.0897 9.05313 12.0897C9.68552 12.0897 10.1071 11.9444 10.4584 11.7991C10.8098 11.6538 11.1611 11.4358 11.5124 11.0726C11.8638 10.7093 12.0043 10.4187 12.2151 9.98284C12.3556 9.61959 12.4259 9.18369 12.4962 8.52984C12.4962 7.87599 12.4962 7.65804 12.4962 6.05974C12.4962 4.46144 12.4962 4.24349 12.4962 3.58964C12.4962 2.93579 12.3556 2.49989 12.2151 2.13664C12.0746 1.77339 11.8638 1.41014 11.5124 1.04689C11.1611 0.683636 10.88 0.538336 10.4584 0.320386C10.1071 0.175086 9.68552 0.102435 9.05313 0.0297852C8.42074 0.0297852 8.28021 0.0297852 6.66409 0.0297852Z" fill="white"/>
<path d="M6.66409 2.93579C4.97771 2.93579 3.64266 4.31614 3.64266 6.05974C3.64266 7.80334 4.97771 9.18369 6.66409 9.18369C8.35047 9.18369 9.68552 7.80334 9.68552 6.05974C9.68552 4.31614 8.35047 2.93579 6.66409 2.93579ZM6.66409 8.09394C5.61011 8.09394 4.69665 7.22214 4.69665 6.05974C4.69665 4.96999 5.53984 4.02554 6.66409 4.02554C7.71808 4.02554 8.63153 4.89734 8.63153 6.05974C8.63153 7.14949 7.71808 8.09394 6.66409 8.09394Z" fill="white"/>
<path d="M9.75579 3.58964C10.1439 3.58964 10.4584 3.26437 10.4584 2.86314C10.4584 2.4619 10.1439 2.13664 9.75579 2.13664C9.36772 2.13664 9.05313 2.4619 9.05313 2.86314C9.05313 3.26437 9.36772 3.58964 9.75579 3.58964Z" fill="white"/>
</svg>
