<svg width="46" height="43" viewBox="0 0 46 43" fill="none" xmlns="http://www.w3.org/2000/svg">
<path d="M23 4.07017C28.9639 4.07017 29.7771 4.07017 32.2169 4.07017C34.3855 4.07017 35.4699 4.58181 36.2831 4.83762C37.3675 5.34926 38.1807 5.60508 38.994 6.37253C39.8072 7.13998 40.3494 7.90743 40.6205 8.9307C40.8916 9.69816 41.1627 10.7214 41.4337 12.768C41.4337 15.0703 41.4337 15.582 41.4337 21.4658C41.4337 27.3496 41.4337 27.8612 41.4337 30.1635C41.4337 32.2101 40.8916 33.2334 40.6205 34.0008C40.0783 35.0241 39.8072 35.7915 38.994 36.559C38.1807 37.3264 37.3675 37.8381 36.2831 38.0939C35.4699 38.3497 34.3855 38.6055 32.2169 38.8613C29.7771 38.8613 29.2349 38.8613 23 38.8613C16.7651 38.8613 16.2229 38.8613 13.7831 38.8613C11.6145 38.8613 10.5301 38.3497 9.71687 38.0939C8.63253 37.5823 7.81928 37.3264 7.00603 36.559C6.19277 35.7915 5.6506 35.0241 5.37952 34.0008C5.10843 33.2334 4.83735 32.2101 4.56627 30.1635C4.56627 27.8612 4.56627 27.3496 4.56627 21.4658C4.56627 15.582 4.56627 15.0703 4.56627 12.768C4.56627 10.7214 5.10843 9.69816 5.37952 8.9307C5.92169 7.90743 6.19277 7.13998 7.00603 6.37253C7.81928 5.60508 8.63253 5.09344 9.71687 4.83762C10.5301 4.58181 11.6145 4.32599 13.7831 4.07017C16.2229 4.07017 17.0361 4.07017 23 4.07017ZM23 0.23291C16.7651 0.23291 16.2229 0.23291 13.7831 0.23291C11.3434 0.23291 9.71687 0.744546 8.36145 1.25618C7.00603 1.76782 5.6506 2.53527 4.29518 3.81436C2.93976 5.09344 2.39759 6.11671 1.58434 7.65162C1.04217 8.9307 0.771084 10.4656 0.5 12.768C0.5 15.0703 0.5 15.8378 0.5 21.4658C0.5 27.3496 0.5 27.8612 0.5 30.1635C0.5 32.4659 1.04217 34.0008 1.58434 35.2799C2.12651 36.559 2.93976 37.8381 4.29518 39.1172C5.6506 40.3962 6.73494 40.9079 8.36145 41.6753C9.71687 42.187 11.3434 42.4428 13.7831 42.6986C16.2229 42.6986 17.0361 42.6986 23 42.6986C28.9639 42.6986 29.7771 42.6986 32.2169 42.6986C34.6566 42.6986 36.2831 42.187 37.6386 41.6753C38.994 41.1637 40.3494 40.3962 41.7048 39.1172C43.0602 37.8381 43.6024 36.8148 44.4157 35.2799C44.9578 34.0008 45.2289 32.4659 45.5 30.1635C45.5 27.8612 45.5 27.0937 45.5 21.4658C45.5 15.8378 45.5 15.0703 45.5 12.768C45.5 10.4656 44.9578 8.9307 44.4157 7.65162C43.8735 6.37253 43.0602 5.09344 41.7048 3.81436C40.3494 2.53527 39.2651 2.02363 37.6386 1.25618C36.2831 0.744546 34.6566 0.488728 32.2169 0.23291C29.7771 0.23291 29.2349 0.23291 23 0.23291Z" fill="white"/>
<path d="M23 10.4656C16.494 10.4656 11.3434 15.3261 11.3434 21.4658C11.3434 27.6054 16.494 32.4659 23 32.4659C29.506 32.4659 34.6566 27.6054 34.6566 21.4658C34.6566 15.3261 29.506 10.4656 23 10.4656ZM23 28.6286C18.9337 28.6286 15.4096 25.5588 15.4096 21.4658C15.4096 17.6285 18.6627 14.3029 23 14.3029C27.0663 14.3029 30.5904 17.3727 30.5904 21.4658C30.5904 25.303 27.0663 28.6286 23 28.6286Z" fill="white"/>
<path d="M34.9277 12.768C36.4249 12.768 37.6386 11.6226 37.6386 10.2098C37.6386 8.79695 36.4249 7.65162 34.9277 7.65162C33.4306 7.65162 32.2169 8.79695 32.2169 10.2098C32.2169 11.6226 33.4306 12.768 34.9277 12.768Z" fill="white"/>
</svg>
