<svg width="45" height="34" viewBox="0 0 45 34" fill="none" xmlns="http://www.w3.org/2000/svg">
<path d="M44.85 4.63677C43.275 5.27375 41.475 5.69842 39.675 5.91075C41.475 4.84911 43.05 3.15049 43.725 1.23953C41.925 2.30117 40.125 2.93816 37.875 3.36282C36.3 1.66419 33.825 0.602539 31.35 0.602539C26.4 0.602539 22.35 4.42445 22.35 9.09568C22.35 9.73266 22.35 10.3696 22.575 11.0066C15.15 10.582 8.39999 7.18471 3.89999 2.08883C3.22499 3.3628 2.77499 4.8491 2.77499 6.3354C2.77499 9.308 4.34999 11.8559 6.82499 13.3422C5.24999 13.3422 3.89999 12.9176 2.77499 12.2806C2.77499 16.3148 5.92498 19.9244 9.97498 20.5614C9.29998 20.7737 8.4 20.7737 7.5 20.7737C6.825 20.7737 6.37499 20.7737 5.69999 20.5614C6.82499 23.9587 10.2 26.5066 14.25 26.5066C11.1 28.8422 7.275 30.1162 3 30.1162C2.325 30.1162 1.65 30.1162 0.75 29.9039C4.8 32.2395 9.52499 33.7258 14.7 33.7258C31.35 33.7258 40.35 20.7737 40.35 9.52033V8.45869C42.15 7.8217 43.725 6.33539 44.85 4.63677Z" fill="white"/>
</svg>
