<svg width="12" height="11" viewBox="0 0 12 11" fill="none" xmlns="http://www.w3.org/2000/svg">
<path d="M11.8461 1.98455C11.4379 2.16545 10.9713 2.28606 10.5047 2.34636C10.9713 2.04486 11.3796 1.56246 11.5545 1.01977C11.0879 1.32127 10.6214 1.50216 10.0382 1.62276C9.62994 1.14037 8.98841 0.838867 8.34688 0.838867C7.06383 0.838867 6.01406 1.92426 6.01406 3.25085C6.01406 3.43175 6.01406 3.61264 6.07238 3.79354C4.1478 3.67294 2.39818 2.70815 1.23177 1.26096C1.05681 1.62276 0.940165 2.04486 0.940165 2.46695C0.940165 3.31115 1.34841 4.03474 1.98994 4.45684C1.58169 4.45684 1.23177 4.33624 0.940165 4.15534C0.940165 5.30103 1.75665 6.32612 2.80642 6.50702C2.63146 6.56732 2.39818 6.56732 2.1649 6.56732C1.98994 6.56732 1.8733 6.56732 1.69833 6.50702C1.98994 7.47181 2.86475 8.19541 3.91452 8.19541C3.09803 8.85871 2.10658 9.2205 0.998489 9.2205C0.823527 9.2205 0.648566 9.22051 0.415283 9.16021C1.46505 9.8235 2.68979 10.2456 4.03116 10.2456C8.34688 10.2456 10.6797 6.56732 10.6797 3.37145V3.06995C11.1463 2.88905 11.5545 2.46695 11.8461 1.98455Z" fill="white"/>
</svg>
