<svg width="50" height="33" viewBox="0 0 50 33" fill="none" xmlns="http://www.w3.org/2000/svg">
<path fill-rule="evenodd" clip-rule="evenodd" d="M5.3406 31.4493C4.45801 31.2029 3.65271 30.7645 2.99265 30.1712C2.3326 29.5778 1.83716 28.8469 1.54813 28.0402C-0.103428 23.8703 -0.592779 6.45846 2.588 3.02117C3.64662 1.90299 5.14126 1.21456 6.74748 1.1053C15.2805 0.260062 41.6443 0.372761 44.6722 1.38704C45.5238 1.64156 46.3019 2.07032 46.9481 2.6412C47.5942 3.21208 48.0918 3.91027 48.4035 4.68347C50.208 8.99417 50.2691 24.6592 48.1588 28.8009C47.599 29.879 46.6618 30.7523 45.498 31.2802C42.3172 32.7453 9.56125 32.7171 5.3406 31.4493V31.4493ZM18.8895 23.2787L34.1817 15.9533L18.8895 8.57155V23.2787Z" fill="white"/>
</svg>
