<svg width="14" height="10" viewBox="0 0 14 10" fill="none" xmlns="http://www.w3.org/2000/svg">
<path fill-rule="evenodd" clip-rule="evenodd" d="M1.56834 9.31529C1.33957 9.24531 1.13083 9.12082 0.959743 8.95231C0.788655 8.78381 0.660235 8.57625 0.58532 8.34713C0.157231 7.16293 0.0303897 2.2181 0.854857 1.24194C1.12925 0.924388 1.51667 0.728879 1.93301 0.697849C4.1448 0.457809 10.9784 0.489815 11.7632 0.777863C11.9839 0.850144 12.1856 0.971909 12.3531 1.13403C12.5206 1.29616 12.6496 1.49444 12.7304 1.71402C13.1981 2.93822 13.2139 7.38697 12.6669 8.56317C12.5218 8.86934 12.2789 9.11734 11.9772 9.26728C11.1528 9.68335 2.66234 9.67535 1.56834 9.31529V9.31529ZM5.08025 6.9949L9.04403 4.91456L5.08025 2.8182V6.9949Z" fill="white"/>
</svg>
